<mxfile host="app.diagrams.net" modified="2022-03-09T15:25:00.153Z" agent="5.0 (Macintosh; Intel Mac OS X 10_15_7) AppleWebKit/537.36 (KHTML, like Gecko) Chrome/99.0.4844.51 Safari/537.36" etag="xWif_i0aucCIXGXjus_H" version="17.0.0" type="github">
  <diagram id="qwyssv_Jp2rAdT7Fx25V" name="Page-1">
    <mxGraphModel dx="656" dy="512" grid="1" gridSize="10" guides="1" tooltips="1" connect="1" arrows="1" fold="1" page="1" pageScale="1" pageWidth="1600" pageHeight="1200" math="0" shadow="0">
      <root>
        <mxCell id="0" />
        <mxCell id="1" parent="0" />
        <mxCell id="abnrcZUVTyxAUXUlJfrI-17" value="" style="rounded=0;whiteSpace=wrap;html=1;" parent="1" vertex="1">
          <mxGeometry x="90" y="520" width="920" height="575" as="geometry" />
        </mxCell>
        <mxCell id="abnrcZUVTyxAUXUlJfrI-3" style="edgeStyle=orthogonalEdgeStyle;rounded=0;orthogonalLoop=1;jettySize=auto;html=1;exitX=0.5;exitY=1;exitDx=0;exitDy=0;entryX=0.5;entryY=0;entryDx=0;entryDy=0;" parent="1" source="sjU5E49n6G_sGgpdmTzi-1" target="abnrcZUVTyxAUXUlJfrI-2" edge="1">
          <mxGeometry relative="1" as="geometry" />
        </mxCell>
        <mxCell id="abnrcZUVTyxAUXUlJfrI-8" style="edgeStyle=orthogonalEdgeStyle;rounded=0;orthogonalLoop=1;jettySize=auto;html=1;exitX=0;exitY=0.5;exitDx=0;exitDy=0;entryX=0.875;entryY=0.5;entryDx=0;entryDy=0;entryPerimeter=0;" parent="1" source="sjU5E49n6G_sGgpdmTzi-1" target="abnrcZUVTyxAUXUlJfrI-5" edge="1">
          <mxGeometry relative="1" as="geometry" />
        </mxCell>
        <mxCell id="sjU5E49n6G_sGgpdmTzi-1" value="Module Factory" style="shape=dataStorage;whiteSpace=wrap;html=1;fixedSize=1;fontFamily=Helvetica;fontSize=12;align=center;strokeColor=#d6b656;fillColor=#fff2cc;gradientColor=#ffd966;" parent="1" vertex="1">
          <mxGeometry x="380" y="170" width="120" height="60" as="geometry" />
        </mxCell>
        <mxCell id="abnrcZUVTyxAUXUlJfrI-1" value="" style="endArrow=classic;html=1;dashed=1;fontFamily=Helvetica;fontSize=11;fontColor=rgb(0, 0, 0);align=center;strokeColor=rgb(0, 0, 0);entryX=0.75;entryY=1;entryDx=0;entryDy=0;" parent="1" source="sjU5E49n6G_sGgpdmTzi-1" target="sjU5E49n6G_sGgpdmTzi-1" edge="1">
          <mxGeometry width="50" height="50" relative="1" as="geometry">
            <mxPoint x="1050" y="330" as="sourcePoint" />
            <mxPoint x="470" y="250" as="targetPoint" />
            <Array as="points">
              <mxPoint x="530" y="180" />
              <mxPoint x="550" y="200" />
              <mxPoint x="570" y="240" />
              <mxPoint x="550" y="280" />
              <mxPoint x="510" y="290" />
              <mxPoint x="470" y="280" />
            </Array>
          </mxGeometry>
        </mxCell>
        <mxCell id="abnrcZUVTyxAUXUlJfrI-9" style="edgeStyle=orthogonalEdgeStyle;rounded=0;orthogonalLoop=1;jettySize=auto;html=1;exitX=0;exitY=0.5;exitDx=0;exitDy=0;entryX=0.875;entryY=0.5;entryDx=0;entryDy=0;entryPerimeter=0;" parent="1" source="abnrcZUVTyxAUXUlJfrI-2" target="abnrcZUVTyxAUXUlJfrI-6" edge="1">
          <mxGeometry relative="1" as="geometry" />
        </mxCell>
        <mxCell id="abnrcZUVTyxAUXUlJfrI-50" style="edgeStyle=orthogonalEdgeStyle;rounded=0;orthogonalLoop=1;jettySize=auto;html=1;entryX=0.454;entryY=0.28;entryDx=0;entryDy=0;entryPerimeter=0;" parent="1" source="abnrcZUVTyxAUXUlJfrI-2" target="abnrcZUVTyxAUXUlJfrI-48" edge="1">
          <mxGeometry relative="1" as="geometry" />
        </mxCell>
        <mxCell id="abnrcZUVTyxAUXUlJfrI-2" value="Card Factory" style="shape=dataStorage;whiteSpace=wrap;html=1;fixedSize=1;fontFamily=Helvetica;fontSize=12;align=center;strokeColor=#d6b656;fillColor=#fff2cc;gradientColor=#ffd966;" parent="1" vertex="1">
          <mxGeometry x="385" y="300" width="110" height="40" as="geometry" />
        </mxCell>
        <mxCell id="abnrcZUVTyxAUXUlJfrI-5" value="Settings" style="ellipse;shape=cloud;whiteSpace=wrap;html=1;fillColor=#f0a30a;strokeColor=#BD7000;fontColor=#000000;" parent="1" vertex="1">
          <mxGeometry x="220" y="185" width="120" height="30" as="geometry" />
        </mxCell>
        <mxCell id="abnrcZUVTyxAUXUlJfrI-6" value="Settings" style="ellipse;shape=cloud;whiteSpace=wrap;html=1;fillColor=#f0a30a;strokeColor=#BD7000;fontColor=#000000;" parent="1" vertex="1">
          <mxGeometry x="210" y="305" width="120" height="30" as="geometry" />
        </mxCell>
        <mxCell id="abnrcZUVTyxAUXUlJfrI-15" style="edgeStyle=orthogonalEdgeStyle;rounded=0;orthogonalLoop=1;jettySize=auto;html=1;exitX=0;exitY=0.5;exitDx=0;exitDy=0;entryX=0.875;entryY=0.5;entryDx=0;entryDy=0;entryPerimeter=0;" parent="1" source="abnrcZUVTyxAUXUlJfrI-12" target="abnrcZUVTyxAUXUlJfrI-14" edge="1">
          <mxGeometry relative="1" as="geometry" />
        </mxCell>
        <mxCell id="abnrcZUVTyxAUXUlJfrI-12" value="Skin Factory" style="shape=dataStorage;whiteSpace=wrap;html=1;fixedSize=1;dashed=1;dashPattern=1 1;fontFamily=Helvetica;fontSize=12;align=center;strokeColor=#d6b656;fillColor=#fff2cc;gradientColor=#ffd966;" parent="1" vertex="1">
          <mxGeometry x="385" y="80" width="120" height="60" as="geometry" />
        </mxCell>
        <mxCell id="abnrcZUVTyxAUXUlJfrI-14" value="Settings" style="ellipse;shape=cloud;whiteSpace=wrap;html=1;fillColor=#f0a30a;strokeColor=#BD7000;fontColor=#000000;" parent="1" vertex="1">
          <mxGeometry x="210" y="95" width="120" height="30" as="geometry" />
        </mxCell>
        <mxCell id="abnrcZUVTyxAUXUlJfrI-38" style="edgeStyle=orthogonalEdgeStyle;rounded=0;orthogonalLoop=1;jettySize=auto;html=1;exitX=1;exitY=0.5;exitDx=0;exitDy=0;entryX=0.07;entryY=0.4;entryDx=0;entryDy=0;entryPerimeter=0;" parent="1" source="abnrcZUVTyxAUXUlJfrI-18" target="abnrcZUVTyxAUXUlJfrI-35" edge="1">
          <mxGeometry relative="1" as="geometry">
            <mxPoint x="1399" y="783.99" as="targetPoint" />
          </mxGeometry>
        </mxCell>
        <mxCell id="abnrcZUVTyxAUXUlJfrI-18" value="Default Skin &lt;br&gt;Template" style="shape=hexagon;perimeter=hexagonPerimeter2;whiteSpace=wrap;html=1;fixedSize=1;fontFamily=Helvetica;fontSize=12;align=center;strokeColor=#666666;fillColor=#f5f5f5;gradientColor=#b3b3b3;dashed=1;dashPattern=1 1;" parent="1" vertex="1">
          <mxGeometry x="1240" y="750" width="120" height="60" as="geometry" />
        </mxCell>
        <mxCell id="abnrcZUVTyxAUXUlJfrI-26" style="edgeStyle=orthogonalEdgeStyle;rounded=0;orthogonalLoop=1;jettySize=auto;html=1;exitX=0.5;exitY=1;exitDx=0;exitDy=0;entryX=0.5;entryY=0;entryDx=0;entryDy=0;" parent="1" source="abnrcZUVTyxAUXUlJfrI-19" target="abnrcZUVTyxAUXUlJfrI-20" edge="1">
          <mxGeometry relative="1" as="geometry" />
        </mxCell>
        <mxCell id="abnrcZUVTyxAUXUlJfrI-19" value="Timeline" style="rounded=0;whiteSpace=wrap;html=1;fillColor=#dae8fc;strokeColor=#6c8ebf;gradientColor=#7ea6e0;" parent="1" vertex="1">
          <mxGeometry x="1195" y="907.5" width="120" height="60" as="geometry" />
        </mxCell>
        <mxCell id="abnrcZUVTyxAUXUlJfrI-57" style="edgeStyle=orthogonalEdgeStyle;rounded=0;orthogonalLoop=1;jettySize=auto;html=1;exitX=0.136;exitY=1.05;exitDx=0;exitDy=0;entryX=0.385;entryY=0.275;entryDx=0;entryDy=0;entryPerimeter=0;exitPerimeter=0;" parent="1" source="abnrcZUVTyxAUXUlJfrI-20" edge="1">
          <mxGeometry relative="1" as="geometry">
            <mxPoint x="1190.04" y="1076" as="targetPoint" />
          </mxGeometry>
        </mxCell>
        <mxCell id="abnrcZUVTyxAUXUlJfrI-58" style="edgeStyle=orthogonalEdgeStyle;rounded=0;orthogonalLoop=1;jettySize=auto;html=1;exitX=0.709;exitY=0.6;exitDx=0;exitDy=0;entryX=0.75;entryY=0;entryDx=0;entryDy=0;entryPerimeter=0;exitPerimeter=0;" parent="1" source="abnrcZUVTyxAUXUlJfrI-20" target="abnrcZUVTyxAUXUlJfrI-55" edge="1">
          <mxGeometry relative="1" as="geometry" />
        </mxCell>
        <mxCell id="abnrcZUVTyxAUXUlJfrI-61" style="edgeStyle=orthogonalEdgeStyle;rounded=0;orthogonalLoop=1;jettySize=auto;html=1;exitX=0.564;exitY=0.725;exitDx=0;exitDy=0;entryX=0.75;entryY=0;entryDx=0;entryDy=0;entryPerimeter=0;exitPerimeter=0;" parent="1" source="abnrcZUVTyxAUXUlJfrI-20" target="abnrcZUVTyxAUXUlJfrI-54" edge="1">
          <mxGeometry relative="1" as="geometry" />
        </mxCell>
        <mxCell id="abnrcZUVTyxAUXUlJfrI-20" value="Event" style="shape=document;whiteSpace=wrap;html=1;boundedLbl=1;size=0.5;fillColor=#d5e8d4;gradientColor=#97d077;strokeColor=#82b366;" parent="1" vertex="1">
          <mxGeometry x="1195" y="1000" width="110" height="40" as="geometry" />
        </mxCell>
        <mxCell id="abnrcZUVTyxAUXUlJfrI-22" value="Product Showcase" style="rounded=0;whiteSpace=wrap;html=1;fillColor=#dae8fc;strokeColor=#6c8ebf;gradientColor=#7ea6e0;" parent="1" vertex="1">
          <mxGeometry x="1580" y="827.5" width="120" height="60" as="geometry" />
        </mxCell>
        <mxCell id="abnrcZUVTyxAUXUlJfrI-23" value="Product" style="shape=document;whiteSpace=wrap;html=1;boundedLbl=1;size=0.5;fillColor=#d5e8d4;gradientColor=#97d077;strokeColor=#82b366;" parent="1" vertex="1">
          <mxGeometry x="1580" y="990" width="110" height="40" as="geometry" />
        </mxCell>
        <mxCell id="abnrcZUVTyxAUXUlJfrI-24" value="Category" style="rounded=0;whiteSpace=wrap;html=1;fillColor=#dae8fc;strokeColor=#6c8ebf;gradientColor=#7ea6e0;" parent="1" vertex="1">
          <mxGeometry x="1580" y="907.5" width="120" height="60" as="geometry" />
        </mxCell>
        <mxCell id="abnrcZUVTyxAUXUlJfrI-30" value="Text" style="ellipse;shape=cloud;whiteSpace=wrap;html=1;fillColor=#f0a30a;strokeColor=#BD7000;fontColor=#000000;" parent="1" vertex="1">
          <mxGeometry x="1730" y="1007.5" width="120" height="30" as="geometry" />
        </mxCell>
        <mxCell id="abnrcZUVTyxAUXUlJfrI-31" value="Font Family" style="ellipse;shape=cloud;whiteSpace=wrap;html=1;fillColor=#f0a30a;strokeColor=#BD7000;fontColor=#000000;" parent="1" vertex="1">
          <mxGeometry x="1760" y="1042.5" width="120" height="30" as="geometry" />
        </mxCell>
        <mxCell id="abnrcZUVTyxAUXUlJfrI-32" value="Weight" style="ellipse;shape=cloud;whiteSpace=wrap;html=1;fillColor=#f0a30a;strokeColor=#BD7000;fontColor=#000000;" parent="1" vertex="1">
          <mxGeometry x="1760" y="1082.5" width="120" height="30" as="geometry" />
        </mxCell>
        <mxCell id="abnrcZUVTyxAUXUlJfrI-33" value="Background" style="ellipse;shape=cloud;whiteSpace=wrap;html=1;fillColor=#f0a30a;strokeColor=#BD7000;fontColor=#000000;" parent="1" vertex="1">
          <mxGeometry x="1746" y="855" width="120" height="30" as="geometry" />
        </mxCell>
        <mxCell id="abnrcZUVTyxAUXUlJfrI-34" value="Color" style="ellipse;shape=cloud;whiteSpace=wrap;html=1;fillColor=#f0a30a;strokeColor=#BD7000;fontColor=#000000;" parent="1" vertex="1">
          <mxGeometry x="1786" y="890" width="120" height="30" as="geometry" />
        </mxCell>
        <mxCell id="abnrcZUVTyxAUXUlJfrI-35" value="Slide Duration" style="ellipse;shape=cloud;whiteSpace=wrap;html=1;fillColor=#f0a30a;strokeColor=#BD7000;fontColor=#000000;" parent="1" vertex="1">
          <mxGeometry x="1390" y="750" width="120" height="30" as="geometry" />
        </mxCell>
        <mxCell id="abnrcZUVTyxAUXUlJfrI-37" value="Image" style="ellipse;shape=cloud;whiteSpace=wrap;html=1;fillColor=#f0a30a;strokeColor=#BD7000;fontColor=#000000;" parent="1" vertex="1">
          <mxGeometry x="1786" y="927.5" width="120" height="30" as="geometry" />
        </mxCell>
        <mxCell id="abnrcZUVTyxAUXUlJfrI-52" style="edgeStyle=orthogonalEdgeStyle;rounded=0;orthogonalLoop=1;jettySize=auto;html=1;exitX=0;exitY=0.65;exitDx=0;exitDy=0;exitPerimeter=0;entryX=0.875;entryY=0.5;entryDx=0;entryDy=0;entryPerimeter=0;" parent="1" source="abnrcZUVTyxAUXUlJfrI-48" target="abnrcZUVTyxAUXUlJfrI-51" edge="1">
          <mxGeometry relative="1" as="geometry" />
        </mxCell>
        <mxCell id="abnrcZUVTyxAUXUlJfrI-48" value="Input Factory" style="shape=dataStorage;whiteSpace=wrap;html=1;fixedSize=1;dashed=1;dashPattern=1 1;fontFamily=Helvetica;fontSize=12;align=center;strokeColor=#d6b656;fillColor=#fff2cc;gradientColor=#ffd966;" parent="1" vertex="1">
          <mxGeometry x="380" y="385" width="130" height="50" as="geometry" />
        </mxCell>
        <mxCell id="abnrcZUVTyxAUXUlJfrI-51" value="Settings" style="ellipse;shape=cloud;whiteSpace=wrap;html=1;fillColor=#f0a30a;strokeColor=#BD7000;fontColor=#000000;" parent="1" vertex="1">
          <mxGeometry x="210" y="405" width="120" height="30" as="geometry" />
        </mxCell>
        <mxCell id="abnrcZUVTyxAUXUlJfrI-54" value="Title" style="shape=tape;whiteSpace=wrap;html=1;dashed=1;dashPattern=1 1;fontFamily=Helvetica;fontSize=12;fontColor=rgb(0, 0, 0);align=center;strokeColor=#996185;fillColor=#e6d0de;gradientColor=#d5739d;" parent="1" vertex="1">
          <mxGeometry x="1190" y="1090" width="104" height="40" as="geometry" />
        </mxCell>
        <mxCell id="abnrcZUVTyxAUXUlJfrI-55" value="Description" style="shape=tape;whiteSpace=wrap;html=1;dashed=1;dashPattern=1 1;fontFamily=Helvetica;fontSize=12;fontColor=rgb(0, 0, 0);align=center;strokeColor=#996185;fillColor=#e6d0de;gradientColor=#d5739d;" parent="1" vertex="1">
          <mxGeometry x="1220" y="1115" width="104" height="40" as="geometry" />
        </mxCell>
        <mxCell id="abnrcZUVTyxAUXUlJfrI-68" value="Title" style="shape=tape;whiteSpace=wrap;html=1;dashed=1;dashPattern=1 1;fontFamily=Helvetica;fontSize=12;fontColor=rgb(0, 0, 0);align=center;strokeColor=#996185;fillColor=#e6d0de;gradientColor=#d5739d;" parent="1" vertex="1">
          <mxGeometry x="1460" y="1080" width="104" height="40" as="geometry" />
        </mxCell>
        <mxCell id="abnrcZUVTyxAUXUlJfrI-69" value="Description" style="shape=tape;whiteSpace=wrap;html=1;dashed=1;dashPattern=1 1;fontFamily=Helvetica;fontSize=12;fontColor=rgb(0, 0, 0);align=center;strokeColor=#996185;fillColor=#e6d0de;gradientColor=#d5739d;" parent="1" vertex="1">
          <mxGeometry x="1610" y="1080" width="104" height="40" as="geometry" />
        </mxCell>
        <mxCell id="8HNwIJv7eohrndKnXfrw-2" value="Organization&lt;br&gt;Name:______" style="ellipse;shape=cloud;whiteSpace=wrap;html=1;" vertex="1" parent="1">
          <mxGeometry x="700" y="45" width="120" height="80" as="geometry" />
        </mxCell>
        <mxCell id="8HNwIJv7eohrndKnXfrw-10" value="has many: editors" style="shape=process;whiteSpace=wrap;html=1;backgroundOutline=1;fillColor=#fff2cc;gradientColor=#ffd966;strokeColor=#d6b656;" vertex="1" parent="1">
          <mxGeometry x="820" y="65" width="160" height="20" as="geometry" />
        </mxCell>
        <mxCell id="8HNwIJv7eohrndKnXfrw-11" value="has many: viewers" style="shape=process;whiteSpace=wrap;html=1;backgroundOutline=1;fillColor=#fff2cc;gradientColor=#ffd966;strokeColor=#d6b656;" vertex="1" parent="1">
          <mxGeometry x="820" y="95" width="160" height="20" as="geometry" />
        </mxCell>
        <mxCell id="8HNwIJv7eohrndKnXfrw-13" value="boolean: public" style="shape=process;whiteSpace=wrap;html=1;backgroundOutline=1;fillColor=#dae8fc;strokeColor=#6c8ebf;" vertex="1" parent="1">
          <mxGeometry x="820" y="125" width="160" height="20" as="geometry" />
        </mxCell>
        <mxCell id="8HNwIJv7eohrndKnXfrw-14" value="Skin Instance" style="shape=hexagon;perimeter=hexagonPerimeter2;whiteSpace=wrap;html=1;fixedSize=1;" vertex="1" parent="1">
          <mxGeometry x="670" y="175" width="120" height="40" as="geometry" />
        </mxCell>
        <mxCell id="8HNwIJv7eohrndKnXfrw-15" value="Skin Instance" style="shape=hexagon;perimeter=hexagonPerimeter2;whiteSpace=wrap;html=1;fixedSize=1;" vertex="1" parent="1">
          <mxGeometry x="810" y="175" width="120" height="40" as="geometry" />
        </mxCell>
        <mxCell id="8HNwIJv7eohrndKnXfrw-16" value="Timeline" style="rounded=0;whiteSpace=wrap;html=1;" vertex="1" parent="1">
          <mxGeometry x="670" y="240" width="120" height="30" as="geometry" />
        </mxCell>
      </root>
    </mxGraphModel>
  </diagram>
</mxfile>
